<?xml version="1.0" encoding="utf-8"?>
<!-- Generator: Adobe Illustrator 23.0.2, SVG Export Plug-In . SVG Version: 6.00 Build 0)  -->
<svg version="1.1" id="Layer_1" xmlns="http://www.w3.org/2000/svg" xmlns:xlink="http://www.w3.org/1999/xlink" x="0px" y="0px"
	 viewBox="0 0 250 247.6" style="enable-background:new 0 0 250 247.6;" xml:space="preserve">
<style type="text/css">
	.st0{fill-rule:evenodd;clip-rule:evenodd;fill:#FFD600;}
</style>
<g>
	<polygon class="st0" points="56.4,228.5 124.8,141.6 196.1,227.1 124.8,180.7 	"/>
	<path class="st0" d="M124.8,141.6c0,0-0.2,0.7,114.3-48.3c-57.9,16-86.4,16.3-114.5,15.6c-28.2-0.7-84.3-2.8-113.6-13.6
		C124.8,141.6,124.8,141.6,124.8,141.6L124.8,141.6z"/>
	<path class="st0" d="M1,91.4c25.2-36,87.3-79.6,121.3-90.6C164.5,13.2,227.8,60.8,249,89.5c0.6,44-24.2,119.2-45.4,148
		c-41.8,13.5-122.7,11.7-155.6-1C22.3,200.8,0.1,127.1,1,91.4L1,91.4z M10.6,94.8c24.1-30.2,63.2-62.5,112.3-84.4
		c36.3,13.2,81,43.1,117.4,82.6c-1.9,38.6-15.5,89.1-42.5,135.6c-37.5,9.5-91,12.8-143.4,0.7C33.8,196.5,15.1,148.4,10.6,94.8
		L10.6,94.8z"/>
	<path class="st0" d="M117.9,46.9v10c-2.4-2.1-4.5-2.5-8.4-2.5c-3.9,0-10.4,5.7-10.4,11.9c0,6.3,5.3,11.7,11,11.8
		c5.7,0.1,7.9-1.2,9.4-3.2c0,9.5,0,0,0,9.5c-3.1,1.4-4.7,1.7-10.1,1.7c-5.4-0.1-19.6-4.9-20-19.2c-0.3-14.3,11.8-20,19.6-20.3
		C116.7,46.3,117.1,46.7,117.9,46.9L117.9,46.9z"/>
	<path class="st0" d="M181.9,62.3c5,1.3,11.9,4.7,9.3,10.7c-2.6,5.9-8.4,4.9-14,2.6C178.3,71.1,179.9,66.7,181.9,62.3L181.9,62.3z
		 M171.7,93.5l-8.7-3.9l11.7-36.4c6.2,1.7,11.5,3.7,15.3,5.2c13.6,5.4,11.1,15.2,9.4,19.4c-2.5,6-13.2,9.2-24.1,3.7
		C172,88.2,171.7,93.5,171.7,93.5z"/>
	<path class="st0" d="M160.2,50.2l-2.6,9.7c-1.8-2.6-3.7-3.6-7.5-4.6c-3.8-1-11.5,2.7-13.1,8.8c-1.6,6,2,12.7,7.6,14.3
		c5.5,1.6,7.9,0.9,9.9-0.6c-2.5,9.2,0,0-2.5,9.2c-3.4,0.5-5,0.5-10.2-1c-5.2-1.5-17.7-9.9-14.2-23.8c3.4-13.9,16.6-16.2,24.2-14.5
		C159.3,49.4,159.5,49.9,160.2,50.2L160.2,50.2z"/>
	<path class="st0" d="M75.9,55.1l2.5,9.7c-2.8-1.4-5-1.3-8.8-0.4c-3.8,1-8.7,8-7.1,14.1c1.5,6.1,8,10.1,13.6,8.8
		c5.6-1.3,7.4-3.1,8.3-5.4c2.3,9.2,0,0,2.3,9.2c-2.7,2.1-4.1,2.8-9.4,4.1c-5.3,1.2-20.2,0-24.1-13.8c-3.8-13.8,6.6-22.3,14-24.4
		C74.6,54.9,75.1,55.2,75.9,55.1z"/>
</g>
</svg>
