<?xml version="1.0" encoding="utf-8"?>
<!-- Generator: Adobe Illustrator 23.0.2, SVG Export Plug-In . SVG Version: 6.00 Build 0)  -->
<svg version="1.1" id="Layer_1" xmlns="http://www.w3.org/2000/svg" xmlns:xlink="http://www.w3.org/1999/xlink" x="0px" y="0px"
	 viewBox="0 0 172 141.5" style="enable-background:new 0 0 172 141.5;" xml:space="preserve">
<style type="text/css">
	.st0{fill:#FFD600;}
</style>
<path class="st0" d="M165.4,61.6h-48.7l-11.9-26.5c1.6-2.2,2-5.2,0.8-7.8L95.8,5.4c-1.3-2.8-3.9-4.5-6.8-4.6c-1,0-5,0-6,0
	c-2.9,0.1-5.6,1.8-6.8,4.6l-9.8,21.9c-1.2,2.7-0.8,5.6,0.8,7.8L55.3,61.6H6.6c-3,0-5.4,2.4-5.4,5.4c0,3,2.4,5.4,5.4,5.4h2.2
	l22.5,64.5c0,0,1.4,3.3,6.5,3.3s91,0,91,0s7.3,0.4,9.2-4.5c1.7-4.4,21.8-54.4,25.3-63.3h2.1c3,0,5.4-2.4,5.4-5.4
	C170.8,64,168.4,61.6,165.4,61.6z M110.4,107.6H90.1V94.3h22.4L110.4,107.6z M120.4,94.3h22.1l-5.4,13.4h-18.7L120.4,94.3z
	 M28.6,94.3H52l2.1,13.4H33.5L28.6,94.3z M59.9,94.3h22.4v13.4H61.9L59.9,94.3z M82.3,72.4v14.1H58.7l-2.2-14.1H82.3z M82.3,115.4
	V130H65.4l-2.3-14.6H82.3z M90.1,115.4h19.2L107,130H90.1V115.4z M90.1,86.5V72.4h25.8l-2.2,14.1H90.1z M74.2,38.2
	c2.7-0.3,5.2-1.9,6.4-4.6l5.4-12l5.4,12c1.2,2.7,3.7,4.3,6.4,4.6l10.5,23.4H63.7L74.2,38.2z M48.6,72.4l2.2,14.1h-25l-5.1-14.1H48.6
	z M36.3,115.4h18.9l2.3,14.6H41.6L36.3,115.4z M127.9,130h-13.1l2.3-14.6h16.8L127.9,130z M145.7,86.5h-24.1l2.2-14.1h27.6
	L145.7,86.5z"/>
</svg>
