<?xml version="1.0" encoding="utf-8"?>
<!-- Generator: Adobe Illustrator 23.0.2, SVG Export Plug-In . SVG Version: 6.00 Build 0)  -->
<svg version="1.1" id="Layer_1" xmlns="http://www.w3.org/2000/svg" xmlns:xlink="http://www.w3.org/1999/xlink" x="0px" y="0px"
	 viewBox="0 0 1280 1055.6" style="enable-background:new 0 0 1280 1055.6;" xml:space="preserve">
<style type="text/css">
	.st0{fill:#FFD600;}
</style>
<g transform="translate(0.000000,1081.000000) scale(0.100000,-0.100000)">
	<path class="st0" d="M140,10527.7c-61.2-163.7,104.9-437.9,494.2-820.5c288.2-283.8,612.1-546.2,999.1-812.9
		c69.5-47.2,125-89.6,124.1-93.6c-1-4-119-179.3-261.7-390.9L1236,8026.8l252.7-1315.3c144.4-748.4,258.8-1320.2,265.8-1327.1
		c26.3-23.7,7313.8-4952.6,7322.8-4952.5c5,0.1,273.6,391.1,597.3,869.7c323.7,477.6,1121.6,1654.6,1771.9,2616
		c651.3,961.3,1182.5,1748.3,1181.5,1749.3c-23.2,14.7-751.7,506.6-3764.7,2547.1l-3570.2,2417.3l-635.7-122.1
		c-1700.5-327-1963.9-378-1982.9-382.2c-13-3.1-80-92.9-177.4-238c-93.5-138.1-161.4-230.8-169.5-227.9
		c-6,2.9-79.5,48.1-161.2,102.2c-822,535.9-1334.2,815.2-1637,889.8C313.1,10705.6,190.5,10667.3,140,10527.7z M853.6,10391.7
		c298.6-142.7,631.8-339,1176.8-694.9l233.7-152.4l-188.9-278.1C1971,9113,1874.5,8970,1861.8,8949.8l-25.6-38.3l-114.9,76.7
		c-643.8,424.8-1306.8,1049.5-1432.2,1350.1c-38,89.6-41.6,145.5-13,178.9C337.4,10588.9,524.8,10548,853.6,10391.7z M3130.5,8981
		c217.5-46.6,412.6-232.4,473.1-449.7c20.9-77.8,25.5-221.7,8.4-299.9c-33.3-150.4-143.6-309.6-271.6-392.1
		c-137-88.5-315.6-123.5-468-92.2c-235.6,50.4-424.6,227.3-485.1,456.6c-17.7,63.8-24.8,253.7-10.8,253.9c4,0,58.2-19.4,119.5-43.7
		c152.7-59.3,251.9-83.2,365-87.9c101.1-4.9,146,4.6,205.6,41.3l30.8,19.3l-25.7,61.7c-14.4,33.8-77.8,164.1-142.3,290.4
		c-114.5,223.7-116.6,228.7-94.7,237C2876.4,8992.2,3063.3,8996.2,3130.5,8981z M2703.3,8908.2c0.1-6,48.2-107.5,107.5-224.8
		c59.3-116.3,107.4-213.8,107.4-215.8c0-2-36-4.4-79-4.9c-61-0.7-100.1,5.9-170.3,28.1c-97.3,29.9-262.1,96.1-262.2,104.1
		c0,3,13.6,32.2,30.3,64.3c39.2,75.4,130,177.5,200.5,225.3C2697.1,8925.1,2703.1,8927.2,2703.3,8908.2z"/>
</g>
</svg>
