<?xml version="1.0" encoding="utf-8"?>
<!-- Generator: Adobe Illustrator 23.0.2, SVG Export Plug-In . SVG Version: 6.00 Build 0)  -->
<svg version="1.1" id="Layer_1" xmlns="http://www.w3.org/2000/svg" xmlns:xlink="http://www.w3.org/1999/xlink" x="0px" y="0px"
	 viewBox="0 0 64 64" style="enable-background:new 0 0 64 64;" xml:space="preserve">
<style type="text/css">
	.st0{fill:#FFD600;}
</style>
<path class="st0" d="M58.1,36.8L31.2,9.9c-0.7-0.7-1.7-1-2.6-0.8L21,10.4c0-0.1,0-0.2,0-0.3c-1.3-3-4.4-5.1-7.8-5.1
	C8.7,5,5,8.6,5,13c0,3.5,2.3,6.4,5.5,7.5l-1.4,8c-0.2,1,0.1,1.9,0.8,2.6L36.8,58c0.6,0.6,1.3,0.9,2.1,0.9s1.5-0.3,2.1-0.9l17.1-17
	c0.6-0.6,0.9-1.3,0.9-2.1S58.7,37.4,58.1,36.8z M7,13c0-3.3,2.8-6,6.2-6c2.5,0,4.8,1.5,5.8,3.8l-5,0.9c-1.2,0.2-2.2,1.2-2.4,2.4
	l-0.8,4.5C8.6,17.6,7,15.5,7,13z M56.7,39.6L39.6,56.7c-0.4,0.4-1,0.4-1.4,0L11.3,29.8C11.1,29.6,11,29.3,11,29l0,0l1.4-8
	c0.3,0,0.5,0,0.8,0c0.8,0,1.7-0.1,2.4-0.4c0.6,0.6,1.5,0.9,2.3,0.9c0.9,0,1.8-0.3,2.5-1c1.4-1.4,1.4-3.6,0-4.9
	c-1.4-1.4-3.6-1.3-4.9,0c-0.9,0.9-1.2,2.2-0.9,3.3C14.2,19,13.7,19,13.2,19c-0.1,0-0.3,0-0.4,0l0.8-4.6c0.1-0.4,0.4-0.7,0.8-0.8
	L28.9,11c0.1,0,0.1,0,0.2,0c0.3,0,0.5,0.1,0.7,0.3l26.9,26.9c0.2,0.2,0.3,0.4,0.3,0.7S56.9,39.4,56.7,39.6z M17,17
	c0.3-0.3,0.7-0.5,1.1-0.5c0.1,0,0.2,0,0.3,0.1c-0.1,0.1-0.2,0.1-0.3,0.2c-0.4,0.5-1,1-1.6,1.3C16.5,17.7,16.6,17.3,17,17z
	 M19.4,18.2c-0.1,0.3-0.2,0.6-0.4,0.8c-0.3,0.3-0.6,0.4-1,0.4C18.6,19.1,19,18.7,19.4,18.2z"/>
</svg>
