<?xml version="1.0" encoding="utf-8"?>
<!-- Generator: Adobe Illustrator 23.0.2, SVG Export Plug-In . SVG Version: 6.00 Build 0)  -->
<svg version="1.1" id="Layer_1" xmlns="http://www.w3.org/2000/svg" xmlns:xlink="http://www.w3.org/1999/xlink" x="0px" y="0px"
	 viewBox="0 0 128 128" style="enable-background:new 0 0 128 128;" xml:space="preserve">
<style type="text/css">
	.st0{fill:#FFD600;}
</style>
<g>
	<path class="st0" d="M64,11.5c17.1,0,19.1,0.1,25.9,0.4c6.2,0.3,9.6,1.3,11.9,2.2c2.8,1,5.3,2.7,7.4,4.8s3.8,4.6,4.8,7.4
		c0.9,2.3,1.9,5.6,2.2,11.9c0.3,6.7,0.4,8.8,0.4,25.9s-0.1,19.1-0.4,25.9c-0.3,6.2-1.3,9.6-2.2,11.9c-2.2,5.6-6.6,10-12.1,12.1
		c-2.3,0.9-5.6,1.9-11.9,2.2c-6.7,0.3-8.8,0.4-25.9,0.4s-19.1-0.1-25.9-0.4c-6.2-0.3-9.6-1.3-11.9-2.2c-2.8-1-5.3-2.7-7.4-4.8
		c-2.1-2.1-3.8-4.6-4.8-7.4c-0.9-2.3-1.9-5.6-2.2-11.9c-0.3-6.7-0.4-8.8-0.4-25.9s0.1-19.1,0.4-25.9c0.3-6.2,1.3-9.6,2.2-11.9
		c1-2.8,2.7-5.3,4.8-7.4s4.6-3.8,7.4-4.8c2.3-0.9,5.6-1.9,11.9-2.2C44.9,11.6,46.9,11.5,64,11.5 M64,0C46.6,0,44.4,0.1,37.6,0.4
		s-11.5,1.4-15.5,3C17.8,5,14,7.5,10.8,10.8c-3.3,3.1-5.8,7-7.4,11.3c-1.6,4.1-2.7,8.7-3,15.5S0,46.6,0,64s0.1,19.6,0.4,26.4
		s1.4,11.5,3,15.5c1.6,4.3,4.1,8.1,7.4,11.3c3.2,3.3,7.1,5.8,11.3,7.4c4.1,1.6,8.7,2.7,15.5,3s9,0.4,26.4,0.4s19.6-0.1,26.4-0.4
		s11.5-1.4,15.5-3c8.6-3.3,15.4-10.1,18.7-18.7c1.6-4.1,2.7-8.7,3-15.5s0.4-9,0.4-26.4s-0.1-19.6-0.4-26.4s-1.4-11.5-3-15.5
		c-1.6-4.3-4.1-8.1-7.4-11.3c-3.2-3.3-7.1-5.8-11.3-7.4c-4.1-1.6-8.7-2.7-15.5-3C83.6,0.1,81.4,0,64,0L64,0L64,0z"/>
	<path class="st0" d="M64,31.1c-18.2,0-32.9,14.7-32.9,32.9S45.8,96.9,64,96.9S96.9,82.2,96.9,64l0,0C96.9,45.8,82.2,31.1,64,31.1z
		 M64,85.3c-11.8,0-21.3-9.6-21.3-21.3c0-11.8,9.6-21.3,21.3-21.3c11.8,0,21.3,9.6,21.3,21.3C85.3,75.8,75.8,85.3,64,85.3z"/>
	<circle class="st0" cx="98.2" cy="29.8" r="7.7"/>
</g>
</svg>
