<?xml version="1.0" encoding="utf-8"?>
<!-- Generator: Adobe Illustrator 23.0.2, SVG Export Plug-In . SVG Version: 6.00 Build 0)  -->
<svg version="1.1" id="Layer_1" xmlns="http://www.w3.org/2000/svg" xmlns:xlink="http://www.w3.org/1999/xlink" x="0px" y="0px"
	 viewBox="0 0 50 50" style="enable-background:new 0 0 50 50;" xml:space="preserve">
<style type="text/css">
	.st0{fill:#FFD600;}
</style>
<path id="surface1" class="st0" d="M44.8,13.2c-0.8-2.8-2.3-5-4.6-6.6c-2.9-2-6.1-2.7-9-3.1c-3.9-0.6-7.5-0.7-10.9-0.3
	c-3.2,0.4-5.6,1-7.8,2c-4.3,2-6.9,5.2-7.6,9.5c-0.4,1.9-0.6,3.8-0.8,5.8c-0.3,4.2,0,7.9,1,11.3c1,3.3,2.6,5.7,5.1,7.3
	c0.6,0.4,1.4,0.7,2.2,1c0.4,0.2,0.9,0.3,1.2,0.5C14,40.7,14,40.7,14,41c0,2.4,0,7,0,7l0,1h1.8l0.3-0.3c0.2-0.2,4.6-4.4,6.2-6.2
	l0.2-0.2C22.7,42,22.7,42,23,42c2.1,0,4.3-0.1,6.5-0.2c2.6-0.1,5.6-0.4,8.5-1.6c2.6-1.1,4.5-2.8,5.7-5.1c1.2-2.4,1.9-5,2.2-8
	C46.3,21.8,45.9,17.3,44.8,13.2z M35.4,33.5c-0.7,1.1-1.6,1.8-2.8,2.3c-0.8,0.4-1.7,0.3-2.5-0.1c-7-2.9-12.4-7.6-16-14.3
	c-0.7-1.4-1.3-2.9-1.9-4.3c-0.1-0.3-0.1-0.6-0.2-1c0.1-2.3,1.9-3.7,3.7-4.1c0.7-0.2,1.3,0.1,1.8,0.6c1.4,1.4,2.6,2.9,3.4,4.7
	c0.4,0.8,0.2,1.5-0.4,2c-0.1,0.1-0.3,0.2-0.4,0.3c-1.4,1.1-1.7,1.9-0.9,3.5c1.3,2.8,3.5,4.7,6.3,5.8c0.7,0.3,1.4,0.2,2-0.5
	c0.1-0.1,0.2-0.2,0.2-0.3c1.1-1.9,2.7-1.7,4.2-0.6c1,0.7,1.9,1.4,2.9,2.1C36.3,31,36.3,32,35.4,33.5z M26.1,15c-0.3,0-0.7,0-1,0.1
	c-0.5,0.1-1.1-0.3-1.2-0.8c-0.1-0.5,0.3-1.1,0.8-1.2l0,0c0.4-0.1,0.9-0.1,1.3-0.1c4.3,0,7.9,3.5,7.9,7.9c0,0.4,0,0.9-0.1,1.3
	c-0.1,0.5-0.6,0.9-1.2,0.8c-0.5-0.1-0.9-0.6-0.8-1.1c0.5-3.2-1.6-6.2-4.8-6.8C26.8,15,26.5,15,26.1,15z M31,21c0,0.5-0.5,1-1,1
	s-1-0.5-1-1c0-1.7-1.3-3-3-3c-0.5,0-1-0.5-1-1s0.5-1,1-1C28.8,16,31,18.2,31,21z M36.7,23.2c-0.1,0.5-0.7,0.9-1.2,0.8
	c-0.5-0.1-0.9-0.7-0.8-1.2c0.1-0.6,0.2-1.3,0.2-2c0-4.9-4-8.8-8.8-8.8c-0.7,0-1.3,0.1-2,0.2c-0.5,0.1-1.1-0.2-1.2-0.7c0,0,0,0,0,0
	c-0.1-0.5,0.2-1.1,0.7-1.2c0,0,0,0,0,0c0.8-0.2,1.6-0.3,2.4-0.3c6,0,10.8,4.9,10.8,10.8C37,21.6,36.9,22.4,36.7,23.2L36.7,23.2z"/>
</svg>
