<?xml version="1.0" encoding="utf-8"?>
<!-- Generator: Adobe Illustrator 23.0.2, SVG Export Plug-In . SVG Version: 6.00 Build 0)  -->
<svg version="1.1" id="Capa_1" xmlns="http://www.w3.org/2000/svg" xmlns:xlink="http://www.w3.org/1999/xlink" x="0px" y="0px"
	 viewBox="0 0 144.8 128" style="enable-background:new 0 0 144.8 128;" xml:space="preserve">
<style type="text/css">
	.st0{fill:#FFD600;}
</style>
<g>
	<path class="st0" d="M142.6,96.6c-0.2-0.4-0.3-0.7-0.5-0.9c-2.5-4.4-7.1-9.9-14.1-16.3l-0.1-0.1l-0.1-0.1l-0.1-0.1h-0.1
		c-3.2-3-5.1-5-6-6.1c-1.5-2-1.9-4-1-6c0.6-1.5,2.8-4.7,6.6-9.7c2-2.6,3.6-4.7,4.8-6.3c8.5-11.3,12.1-18.6,11-21.7l-0.4-0.8
		c-0.3-0.4-1.1-0.8-2.3-1.2s-2.8-0.4-4.7-0.2l-21.2,0.1c-0.3-0.1-0.8-0.1-1.4,0.1c-0.6,0.1-0.9,0.3-0.9,0.3l-0.4,0.2l-0.3,0.3
		c-0.3,0.1-0.5,0.4-0.8,0.8c-0.3,0.4-0.6,0.8-0.8,1.3c-2.3,5.9-4.9,11.5-7.9,16.6c-1.8,3-3.5,5.7-5,8c-1.5,2.2-2.8,3.9-3.9,4.9
		c-1,1.1-2,1.9-2.8,2.5S88.7,63,88.3,63c-0.4-0.1-0.9-0.2-1.3-0.3c-0.7-0.4-1.3-1.1-1.6-1.8c-0.4-0.8-0.7-1.7-0.8-2.9
		c-0.1-1.1-0.3-2.2-0.3-3s0-2,0.1-3.5s0.1-2.5,0.1-3.1c0-1.9,0.1-3.9,0.1-6.1c0.1-2.2,0.1-3.9,0.2-5.2c0.1-1.3,0.1-2.7,0.1-4
		c0-1.4-0.1-2.5-0.3-3.4s-0.4-1.6-0.8-2.3S83,26,82.3,25.5s-1.5-0.8-2.5-1c-2.6-0.6-5.9-0.9-10-1c-9.3-0.1-15.2,0.4-17.8,1.7
		c-1,0.6-2,1.3-2.8,2.2c-0.9,1.1-1,1.7-0.4,1.8c3,0.4,5.1,1.5,6.3,3.2l0.4,0.9c0.3,0.6,0.7,1.8,1,3.4c0.3,1.6,0.6,3.4,0.7,5.4
		c0.3,3.6,0.3,6.7,0,9.2c-0.3,2.6-0.5,4.5-0.7,6c-0.2,1.5-0.6,2.6-1,3.5c-0.4,0.9-0.8,1.5-0.9,1.6c-0.1,0.2-0.3,0.3-0.4,0.4
		c-0.6,0.3-1.3,0.4-2,0.4c-0.7,0-1.5-0.3-2.5-1c-1-0.7-2-1.6-3-2.8c-1.1-1.2-2.3-2.9-3.6-5.1c-1.3-2.2-2.7-4.7-4.1-7.7l-1.2-2.2
		c-0.8-1.4-1.8-3.4-3-6c-1.3-2.7-2.4-5.2-3.4-7.6c-0.4-1-1-1.8-1.8-2.3l-0.3-0.3c-0.3-0.2-0.6-0.4-1.2-0.6c-0.6-0.3-1.1-0.4-1.7-0.5
		L6.2,27.2c-2,0.1-3.4,0.5-4.2,1.5l-0.3,0.4c-0.2,0.3-0.3,0.6-0.3,1.1c0,0.6,0.1,1.2,0.4,2c3,7,6.2,13.6,9.6,20.1s6.5,11.6,9.1,15.6
		c2.5,3.9,5.2,7.7,7.8,11.1c2.6,3.5,4.4,5.8,5.3,6.7c0.9,1,1.5,1.7,2,2.2l1.8,1.8c1.2,1.2,2.9,2.6,5.2,4.2c2.3,1.6,4.8,3.3,7.6,4.9
		c2.8,1.6,6,2.9,9.7,3.9c3.7,1,7.3,1.4,10.8,1.2h8.5c1.7-0.1,3-0.7,3.9-1.6l0.3-0.4c0.2-0.3,0.4-0.8,0.6-1.4s0.3-1.3,0.3-2
		c-0.1-2.1,0.1-4.1,0.5-5.8c0.4-1.7,0.8-3,1.3-3.9c0.4-0.9,1-1.6,1.6-2.2s1-0.9,1.3-1.1s0.4-0.2,0.6-0.3c1.2-0.4,2.6,0,4.2,1.1
		s3.1,2.6,4.5,4.3c1.4,1.7,3.1,3.6,5.1,5.8c2,2.1,3.7,3.7,5.2,4.7l1.4,0.9c1,0.6,2.3,1.1,3.9,1.6c1.6,0.5,3,0.6,4.1,0.4l18.9-0.3
		c1.9,0,3.4-0.3,4.4-0.9s1.6-1.3,1.8-2c0.2-0.8,0.2-1.6,0.1-2.5C142.9,97.6,142.7,97,142.6,96.6z"/>
</g>
</svg>
