<?xml version="1.0" encoding="utf-8"?>
<!-- Generator: Adobe Illustrator 23.0.2, SVG Export Plug-In . SVG Version: 6.00 Build 0)  -->
<svg version="1.1" id="Layer_1" xmlns="http://www.w3.org/2000/svg" xmlns:xlink="http://www.w3.org/1999/xlink" x="0px" y="0px"
	 viewBox="0 0 148.7 148.7" style="enable-background:new 0 0 148.7 148.7;" xml:space="preserve">
<style type="text/css">
	.st0{fill:#FFD600;}
</style>
<g>
	<path class="st0" d="M75.6,7.5C39.3,7.5,10,36.7,10,72.6c0,12.3,3.4,23.8,9.4,33.6L7.5,141.2l36.3-11.5c9.4,5.2,20.2,8.1,31.7,8.1
		c36.2,0,65.6-29.2,65.6-65.1C141.2,36.7,111.8,7.5,75.6,7.5z M108.2,97.4c-1.5,3.8-8.5,7.3-11.6,7.5c-3.1,0.2-3.2,2.4-19.9-4.9
		c-16.8-7.3-26.9-25-27.7-26.2c-0.8-1.1-6.5-9.3-6.2-17.4c0.3-8.2,4.8-12,6.4-13.6c1.6-1.6,3.4-1.9,4.5-1.9c1.3,0,2.2,0,3.2,0
		c1,0,2.4-0.2,3.7,3.2c1.3,3.4,4.3,11.7,4.7,12.5c0.4,0.8,0.6,1.8,0,2.9c-0.6,1.1-0.9,1.8-1.8,2.7c-0.9,0.9-1.8,2.1-2.6,2.8
		c-0.9,0.8-1.8,1.7-0.9,3.4c0.9,1.7,4.1,7.3,8.9,11.9c6.2,5.9,11.5,7.9,13.2,8.7c1.7,0.9,2.6,0.8,3.6-0.3c1-1.1,4.4-4.7,5.6-6.3
		c1.2-1.6,2.3-1.3,3.8-0.7c1.5,0.6,9.6,4.9,11.2,5.8c1.7,0.9,2.7,1.4,3.1,2.1C109.9,90.2,109.7,93.5,108.2,97.4z"/>
</g>
</svg>
